<mxfile host="Electron" agent="Mozilla/5.0 (Windows NT 10.0; Win64; x64) AppleWebKit/537.36 (KHTML, like Gecko) draw.io/28.0.6 Chrome/138.0.7204.100 Electron/37.2.3 Safari/537.36" version="28.0.6">
  <diagram name="Page-1" id="O32QnvmtVBVbf1MIhSZD">
    <mxGraphModel dx="1489" dy="1294" grid="1" gridSize="10" guides="1" tooltips="1" connect="1" arrows="1" fold="1" page="0" pageScale="1" pageWidth="1100" pageHeight="850" math="0" shadow="0">
      <root>
        <mxCell id="0" />
        <mxCell id="1" parent="0" />
        <mxCell id="WW0i5yC7IRifx4Jdbwwr-1" value="" style="rounded=1;whiteSpace=wrap;html=1;fillColor=none;strokeColor=light-dark(#23268b, #ededed);dashed=1;dashPattern=8 8;" parent="1" vertex="1">
          <mxGeometry x="80" y="40" width="120" height="600" as="geometry" />
        </mxCell>
        <mxCell id="WW0i5yC7IRifx4Jdbwwr-2" value="&lt;font style=&quot;font-size: 20px;&quot;&gt;Sources&lt;/font&gt;" style="rounded=0;whiteSpace=wrap;html=1;strokeColor=none;fillColor=default;" parent="1" vertex="1">
          <mxGeometry x="95" y="30" width="90" height="20" as="geometry" />
        </mxCell>
        <mxCell id="WW0i5yC7IRifx4Jdbwwr-4" value="" style="rounded=1;whiteSpace=wrap;html=1;fillColor=none;strokeColor=light-dark(#4220bc, #ededed);dashed=1;dashPattern=8 8;" parent="1" vertex="1">
          <mxGeometry x="270" y="40" width="120" height="600" as="geometry" />
        </mxCell>
        <mxCell id="WW0i5yC7IRifx4Jdbwwr-5" value="&lt;font style=&quot;font-size: 20px;&quot;&gt;Ingestion&lt;/font&gt;" style="rounded=0;whiteSpace=wrap;html=1;strokeColor=none;fillColor=default;" parent="1" vertex="1">
          <mxGeometry x="285" y="30" width="90" height="20" as="geometry" />
        </mxCell>
        <mxCell id="WW0i5yC7IRifx4Jdbwwr-7" value="" style="rounded=1;whiteSpace=wrap;html=1;fillColor=none;strokeColor=light-dark(#4220bc, #ededed);dashed=1;dashPattern=8 8;" parent="1" vertex="1">
          <mxGeometry x="470" y="40" width="550" height="600" as="geometry" />
        </mxCell>
        <mxCell id="WW0i5yC7IRifx4Jdbwwr-8" value="&lt;font style=&quot;font-size: 20px;&quot;&gt;DataWarehouse&lt;/font&gt;" style="rounded=0;whiteSpace=wrap;html=1;strokeColor=none;fillColor=default;" parent="1" vertex="1">
          <mxGeometry x="680" y="30" width="140" height="20" as="geometry" />
        </mxCell>
        <mxCell id="WW0i5yC7IRifx4Jdbwwr-9" value="" style="rounded=1;whiteSpace=wrap;html=1;fillColor=none;strokeColor=light-dark(#4220bc, #ededed);dashed=1;dashPattern=8 8;" parent="1" vertex="1">
          <mxGeometry x="1120" y="40" width="120" height="600" as="geometry" />
        </mxCell>
        <mxCell id="WW0i5yC7IRifx4Jdbwwr-10" value="&lt;font style=&quot;font-size: 20px;&quot;&gt;BI&lt;/font&gt;" style="rounded=0;whiteSpace=wrap;html=1;strokeColor=none;fillColor=default;" parent="1" vertex="1">
          <mxGeometry x="1135" y="30" width="90" height="20" as="geometry" />
        </mxCell>
        <mxCell id="WW0i5yC7IRifx4Jdbwwr-11" value="&lt;b&gt;Bronze Layer&lt;/b&gt;" style="rounded=1;whiteSpace=wrap;html=1;fillColor=#ffe6cc;strokeColor=#d79b00;" parent="1" vertex="1">
          <mxGeometry x="500" y="80" width="140" height="40" as="geometry" />
        </mxCell>
        <mxCell id="WW0i5yC7IRifx4Jdbwwr-12" value="" style="rounded=1;whiteSpace=wrap;html=1;fillColor=none;strokeColor=#d79b00;" parent="1" vertex="1">
          <mxGeometry x="500" y="130" width="140" height="470" as="geometry" />
        </mxCell>
        <mxCell id="WW0i5yC7IRifx4Jdbwwr-13" value="&lt;b&gt;Silver Layer&lt;/b&gt;" style="rounded=1;whiteSpace=wrap;html=1;fillColor=#f5f5f5;fontColor=#333333;strokeColor=#666666;" parent="1" vertex="1">
          <mxGeometry x="670" y="80" width="140" height="40" as="geometry" />
        </mxCell>
        <mxCell id="WW0i5yC7IRifx4Jdbwwr-14" value="&lt;b&gt;Golden Layer&lt;/b&gt;" style="rounded=1;whiteSpace=wrap;html=1;fillColor=#fff2cc;strokeColor=#d6b656;" parent="1" vertex="1">
          <mxGeometry x="830" y="80" width="140" height="40" as="geometry" />
        </mxCell>
        <mxCell id="WW0i5yC7IRifx4Jdbwwr-15" value="" style="rounded=1;whiteSpace=wrap;html=1;fillColor=none;strokeColor=#666666;fontColor=#333333;" parent="1" vertex="1">
          <mxGeometry x="670" y="130" width="140" height="470" as="geometry" />
        </mxCell>
        <mxCell id="WW0i5yC7IRifx4Jdbwwr-16" value="" style="rounded=1;whiteSpace=wrap;html=1;fillColor=none;strokeColor=#d6b656;" parent="1" vertex="1">
          <mxGeometry x="830" y="130" width="140" height="470" as="geometry" />
        </mxCell>
        <mxCell id="WW0i5yC7IRifx4Jdbwwr-17" value="&lt;font style=&quot;font-size: 30px;&quot;&gt;&lt;b&gt;High Level Architecture Flow&lt;/b&gt;&lt;/font&gt;" style="rounded=1;whiteSpace=wrap;html=1;fillColor=default;strokeColor=none;arcSize=50;" parent="1" vertex="1">
          <mxGeometry x="460" y="-70" width="420" height="60" as="geometry" />
        </mxCell>
        <mxCell id="WW0i5yC7IRifx4Jdbwwr-20" value="" style="image;aspect=fixed;html=1;points=[];align=center;fontSize=12;image=img/lib/azure2/general/Folder_Blank.svg;" parent="1" vertex="1">
          <mxGeometry x="107.03999999999999" y="155.45" width="49.29" height="40" as="geometry" />
        </mxCell>
        <mxCell id="WW0i5yC7IRifx4Jdbwwr-21" value="" style="image;aspect=fixed;html=1;points=[];align=center;fontSize=12;image=img/lib/azure2/general/File.svg;" parent="1" vertex="1">
          <mxGeometry x="140.82999999999998" y="175.45" width="24.35" height="30" as="geometry" />
        </mxCell>
        <mxCell id="WW0i5yC7IRifx4Jdbwwr-23" value="" style="image;aspect=fixed;html=1;points=[];align=center;fontSize=12;image=img/lib/azure2/general/Folder_Blank.svg;" parent="1" vertex="1">
          <mxGeometry x="106.44" y="465.45" width="49.29" height="40" as="geometry" />
        </mxCell>
        <mxCell id="WW0i5yC7IRifx4Jdbwwr-24" value="" style="image;aspect=fixed;html=1;points=[];align=center;fontSize=12;image=img/lib/azure2/general/File.svg;" parent="1" vertex="1">
          <mxGeometry x="140.23" y="485.45" width="24.35" height="30" as="geometry" />
        </mxCell>
        <mxCell id="WW0i5yC7IRifx4Jdbwwr-25" value="" style="image;aspect=fixed;perimeter=ellipsePerimeter;html=1;align=center;shadow=0;dashed=0;spacingTop=3;image=img/lib/active_directory/database_server.svg;" parent="1" vertex="1">
          <mxGeometry x="111.2" y="287.95" width="41" height="50" as="geometry" />
        </mxCell>
        <mxCell id="WW0i5yC7IRifx4Jdbwwr-26" value="CRM [CSV File]" style="rounded=0;whiteSpace=wrap;html=1;strokeColor=none;fillColor=none;" parent="1" vertex="1">
          <mxGeometry x="98.22" y="215.45" width="65.21" height="20" as="geometry" />
        </mxCell>
        <mxCell id="WW0i5yC7IRifx4Jdbwwr-27" value="ERP [CSV File]" style="rounded=0;whiteSpace=wrap;html=1;strokeColor=none;fillColor=none;" parent="1" vertex="1">
          <mxGeometry x="98.83" y="525.45" width="64.5" height="20" as="geometry" />
        </mxCell>
        <mxCell id="WW0i5yC7IRifx4Jdbwwr-28" value="Real-Time Events &amp;amp; Transactions" style="text;html=1;align=center;verticalAlign=middle;whiteSpace=wrap;rounded=0;" parent="1" vertex="1">
          <mxGeometry x="100.84000000000003" y="357.95" width="60" height="30" as="geometry" />
        </mxCell>
        <mxCell id="WW0i5yC7IRifx4Jdbwwr-29" value="" style="points=[];aspect=fixed;html=1;align=center;shadow=0;dashed=0;fillColor=#FF6A00;strokeColor=none;shape=mxgraph.alibaba_cloud.kafka;" parent="1" vertex="1">
          <mxGeometry x="300" y="295.95" width="56.699999999999996" height="42" as="geometry" />
        </mxCell>
        <mxCell id="WW0i5yC7IRifx4Jdbwwr-30" value="Kafka" style="text;html=1;align=center;verticalAlign=middle;whiteSpace=wrap;rounded=0;" parent="1" vertex="1">
          <mxGeometry x="298.35" y="350" width="60" height="30" as="geometry" />
        </mxCell>
        <mxCell id="WW0i5yC7IRifx4Jdbwwr-34" value="" style="shape=singleArrow;whiteSpace=wrap;html=1;fillColor=#e1d5e7;strokeColor=#9673a6;" parent="1" vertex="1">
          <mxGeometry x="176.7" y="180.45" width="330" height="20" as="geometry" />
        </mxCell>
        <mxCell id="WW0i5yC7IRifx4Jdbwwr-36" value="" style="shape=singleArrow;whiteSpace=wrap;html=1;fillColor=#e1d5e7;strokeColor=#9673a6;" parent="1" vertex="1">
          <mxGeometry x="170" y="485.45" width="330" height="20" as="geometry" />
        </mxCell>
        <mxCell id="WW0i5yC7IRifx4Jdbwwr-37" value="" style="shape=singleArrow;whiteSpace=wrap;html=1;fillColor=#d5e8d4;strokeColor=#82b366;" parent="1" vertex="1">
          <mxGeometry x="170" y="310" width="120" height="20" as="geometry" />
        </mxCell>
        <mxCell id="WW0i5yC7IRifx4Jdbwwr-38" value="" style="shape=singleArrow;whiteSpace=wrap;html=1;fillColor=#d5e8d4;strokeColor=#82b366;" parent="1" vertex="1">
          <mxGeometry x="370" y="310" width="130" height="20" as="geometry" />
        </mxCell>
        <mxCell id="WW0i5yC7IRifx4Jdbwwr-39" value="" style="html=1;verticalLabelPosition=bottom;align=center;labelBackgroundColor=#ffffff;verticalAlign=top;strokeWidth=2;strokeColor=#0080F0;shadow=0;dashed=0;shape=mxgraph.ios7.icons.data;" parent="1" vertex="1">
          <mxGeometry x="535" y="155.45" width="70" height="74.55" as="geometry" />
        </mxCell>
        <mxCell id="WW0i5yC7IRifx4Jdbwwr-41" value="&lt;span class=&quot;notion-enable-hover&quot; data-token-index=&quot;0&quot; style=&quot;font-weight:600&quot;&gt;Staging &amp;amp; Raw Storage&lt;/span&gt;" style="text;html=1;align=center;verticalAlign=middle;whiteSpace=wrap;rounded=0;" parent="1" vertex="1">
          <mxGeometry x="528.75" y="240" width="82.5" height="30" as="geometry" />
        </mxCell>
        <mxCell id="WW0i5yC7IRifx4Jdbwwr-45" value="" style="line;strokeWidth=2;html=1;" parent="1" vertex="1">
          <mxGeometry x="522.5" y="275" width="95" height="10" as="geometry" />
        </mxCell>
        <mxCell id="wu7hRhb_lnTAgbqNo3-q-1" value="&lt;div style=&quot;text-align: left;&quot;&gt;&lt;b style=&quot;background-color: transparent; color: light-dark(rgb(0, 0, 0), rgb(255, 255, 255));&quot;&gt;Object Type:&amp;nbsp;&lt;/b&gt;&lt;span style=&quot;background-color: transparent; color: light-dark(rgb(0, 0, 0), rgb(255, 255, 255));&quot;&gt;Tables&lt;/span&gt;&lt;/div&gt;&lt;div style=&quot;text-align: left;&quot;&gt;&lt;span style=&quot;background-color: transparent; color: light-dark(rgb(0, 0, 0), rgb(255, 255, 255));&quot;&gt;&lt;br&gt;&lt;/span&gt;&lt;/div&gt;&lt;div&gt;&lt;div style=&quot;text-align: left;&quot;&gt;&lt;b style=&quot;background-color: transparent; color: light-dark(rgb(0, 0, 0), rgb(255, 255, 255));&quot;&gt;Load:&amp;nbsp;&lt;/b&gt;&lt;/div&gt;&lt;div&gt;&lt;ul&gt;&lt;li style=&quot;text-align: left;&quot;&gt;Initial Load&lt;/li&gt;&lt;li style=&quot;text-align: left;&quot;&gt;Batch &amp;amp; Stream Processing&lt;/li&gt;&lt;li style=&quot;text-align: left;&quot;&gt;Raw Data&lt;/li&gt;&lt;li style=&quot;text-align: left;&quot;&gt;&amp;nbsp;Immutable Storage&lt;/li&gt;&lt;li style=&quot;text-align: left;&quot;&gt;Append-Only&lt;/li&gt;&lt;/ul&gt;&lt;div style=&quot;text-align: left;&quot;&gt;&lt;b&gt;Transformation:&lt;br&gt;&lt;/b&gt;&lt;ul&gt;&lt;li&gt;No Transformation&lt;/li&gt;&lt;/ul&gt;&lt;/div&gt;&lt;/div&gt;&lt;div style=&quot;text-align: left;&quot;&gt;&lt;br&gt;&lt;/div&gt;&lt;/div&gt;" style="text;html=1;align=center;verticalAlign=middle;whiteSpace=wrap;rounded=0;" vertex="1" parent="1">
          <mxGeometry x="510" y="270" width="140" height="300" as="geometry" />
        </mxCell>
        <mxCell id="wu7hRhb_lnTAgbqNo3-q-4" value="" style="html=1;verticalLabelPosition=bottom;align=center;labelBackgroundColor=#ffffff;verticalAlign=top;strokeWidth=2;strokeColor=#0080F0;shadow=0;dashed=0;shape=mxgraph.ios7.icons.data;" vertex="1" parent="1">
          <mxGeometry x="705" y="155.45" width="70" height="74.55" as="geometry" />
        </mxCell>
        <mxCell id="wu7hRhb_lnTAgbqNo3-q-5" value="&lt;span class=&quot;notion-enable-hover&quot; data-token-index=&quot;0&quot; style=&quot;font-weight:600&quot;&gt;Transformation &amp;amp; Modeling&lt;/span&gt;" style="text;html=1;align=center;verticalAlign=middle;whiteSpace=wrap;rounded=0;" vertex="1" parent="1">
          <mxGeometry x="698.75" y="240" width="82.5" height="30" as="geometry" />
        </mxCell>
        <mxCell id="wu7hRhb_lnTAgbqNo3-q-6" value="" style="line;strokeWidth=2;html=1;" vertex="1" parent="1">
          <mxGeometry x="692.5" y="250" width="95" height="60" as="geometry" />
        </mxCell>
        <mxCell id="wu7hRhb_lnTAgbqNo3-q-7" value="&lt;div style=&quot;text-align: left;&quot;&gt;&lt;b style=&quot;background-color: transparent; color: light-dark(rgb(0, 0, 0), rgb(255, 255, 255));&quot;&gt;Object Type:&amp;nbsp;&lt;/b&gt;&lt;span style=&quot;background-color: transparent; color: light-dark(rgb(0, 0, 0), rgb(255, 255, 255));&quot;&gt;Tables&lt;/span&gt;&lt;/div&gt;&lt;div style=&quot;text-align: left;&quot;&gt;&lt;span style=&quot;background-color: transparent; color: light-dark(rgb(0, 0, 0), rgb(255, 255, 255));&quot;&gt;&lt;br&gt;&lt;/span&gt;&lt;/div&gt;&lt;div style=&quot;text-align: left;&quot;&gt;&lt;span style=&quot;background-color: transparent; color: light-dark(rgb(0, 0, 0), rgb(255, 255, 255));&quot;&gt;&lt;b&gt;Load:&lt;/b&gt;&lt;/span&gt;&lt;/div&gt;&lt;div style=&quot;text-align: left;&quot;&gt;&lt;ul&gt;&lt;li&gt;Batch &amp;amp; Stram Processing&lt;/li&gt;&lt;li&gt;Incremental Loads&lt;/li&gt;&lt;/ul&gt;&lt;/div&gt;&lt;div&gt;&lt;div style=&quot;text-align: left;&quot;&gt;&lt;b style=&quot;background-color: transparent; color: light-dark(rgb(0, 0, 0), rgb(255, 255, 255));&quot;&gt;Transformation:&amp;nbsp;&lt;/b&gt;&lt;/div&gt;&lt;div&gt;&lt;ul&gt;&lt;li style=&quot;text-align: left;&quot;&gt;Data Cleansing&lt;/li&gt;&lt;li style=&quot;text-align: left;&quot;&gt;Data Standardization&lt;/li&gt;&lt;li style=&quot;text-align: left;&quot;&gt;Data Normalization&lt;/li&gt;&lt;li style=&quot;text-align: left;&quot;&gt;Data Enrichment&lt;/li&gt;&lt;/ul&gt;&lt;/div&gt;&lt;div style=&quot;text-align: left;&quot;&gt;&lt;br&gt;&lt;/div&gt;&lt;/div&gt;" style="text;html=1;align=center;verticalAlign=middle;whiteSpace=wrap;rounded=0;" vertex="1" parent="1">
          <mxGeometry x="680" y="310" width="130" height="250" as="geometry" />
        </mxCell>
        <mxCell id="wu7hRhb_lnTAgbqNo3-q-9" value="" style="html=1;verticalLabelPosition=bottom;align=center;labelBackgroundColor=#ffffff;verticalAlign=top;strokeWidth=2;strokeColor=#0080F0;shadow=0;dashed=0;shape=mxgraph.ios7.icons.data;" vertex="1" parent="1">
          <mxGeometry x="865" y="155.45" width="70" height="74.55" as="geometry" />
        </mxCell>
        <mxCell id="wu7hRhb_lnTAgbqNo3-q-10" value="&lt;span class=&quot;notion-enable-hover&quot; data-token-index=&quot;0&quot; style=&quot;font-weight:600&quot;&gt;Serving&lt;/span&gt;" style="text;html=1;align=center;verticalAlign=middle;whiteSpace=wrap;rounded=0;" vertex="1" parent="1">
          <mxGeometry x="858.75" y="240" width="82.5" height="30" as="geometry" />
        </mxCell>
        <mxCell id="wu7hRhb_lnTAgbqNo3-q-11" value="" style="line;strokeWidth=2;html=1;" vertex="1" parent="1">
          <mxGeometry x="852.5" y="250" width="95" height="60" as="geometry" />
        </mxCell>
        <mxCell id="wu7hRhb_lnTAgbqNo3-q-12" value="&lt;div style=&quot;text-align: left;&quot;&gt;&lt;b style=&quot;background-color: transparent; color: light-dark(rgb(0, 0, 0), rgb(255, 255, 255));&quot;&gt;Object Type:&amp;nbsp;&lt;/b&gt;&lt;span style=&quot;background-color: transparent; color: light-dark(rgb(0, 0, 0), rgb(255, 255, 255));&quot;&gt;Views&lt;/span&gt;&lt;/div&gt;&lt;div style=&quot;text-align: left;&quot;&gt;&lt;span style=&quot;background-color: transparent; color: light-dark(rgb(0, 0, 0), rgb(255, 255, 255));&quot;&gt;&lt;br&gt;&lt;/span&gt;&lt;/div&gt;&lt;div style=&quot;text-align: left;&quot;&gt;&lt;span style=&quot;background-color: transparent; color: light-dark(rgb(0, 0, 0), rgb(255, 255, 255));&quot;&gt;&lt;b&gt;Load:&lt;/b&gt;&lt;/span&gt;&lt;/div&gt;&lt;div style=&quot;text-align: left;&quot;&gt;&lt;ul&gt;&lt;li&gt;No Load&lt;/li&gt;&lt;/ul&gt;&lt;/div&gt;&lt;div&gt;&lt;div style=&quot;text-align: left;&quot;&gt;&lt;b style=&quot;background-color: transparent; color: light-dark(rgb(0, 0, 0), rgb(255, 255, 255));&quot;&gt;Transformation:&amp;nbsp;&lt;/b&gt;&lt;/div&gt;&lt;/div&gt;&lt;div style=&quot;text-align: left;&quot;&gt;&lt;ul&gt;&lt;li&gt;Aggregation &amp;amp; Summarization&lt;/li&gt;&lt;li&gt;Dimensional Modeling (Star)&lt;/li&gt;&lt;li&gt;Business KPIs&lt;/li&gt;&lt;/ul&gt;&lt;/div&gt;&lt;div style=&quot;text-align: left;&quot;&gt;&lt;br&gt;&lt;/div&gt;" style="text;html=1;align=center;verticalAlign=middle;whiteSpace=wrap;rounded=0;" vertex="1" parent="1">
          <mxGeometry x="840" y="275.45" width="130" height="230" as="geometry" />
        </mxCell>
        <mxCell id="wu7hRhb_lnTAgbqNo3-q-13" value="" style="image;aspect=fixed;html=1;points=[];align=center;fontSize=12;image=img/lib/azure2/analytics/Power_BI_Embedded.svg;" vertex="1" parent="1">
          <mxGeometry x="1144.5" y="282" width="51" height="68" as="geometry" />
        </mxCell>
        <mxCell id="wu7hRhb_lnTAgbqNo3-q-14" value="Power BI" style="rounded=0;whiteSpace=wrap;html=1;fillColor=none;strokeColor=none;" vertex="1" parent="1">
          <mxGeometry x="1110" y="362.95" width="120" height="20" as="geometry" />
        </mxCell>
        <mxCell id="wu7hRhb_lnTAgbqNo3-q-15" value="&lt;ul&gt;&lt;li&gt;Bi &amp;amp; Reporting&lt;/li&gt;&lt;li&gt;Data Consumption&lt;/li&gt;&lt;li&gt;KPI Tracking&lt;/li&gt;&lt;li&gt;Businees Insights&lt;/li&gt;&lt;/ul&gt;" style="rounded=0;whiteSpace=wrap;html=1;strokeColor=none;fillColor=none;" vertex="1" parent="1">
          <mxGeometry x="1095" y="395.45" width="120" height="130" as="geometry" />
        </mxCell>
        <mxCell id="wu7hRhb_lnTAgbqNo3-q-17" value="" style="shape=singleArrow;whiteSpace=wrap;html=1;fillColor=#6a00ff;fontColor=#ffffff;strokeColor=#3700CC;" vertex="1" parent="1">
          <mxGeometry x="1020" y="290" width="90" height="60" as="geometry" />
        </mxCell>
      </root>
    </mxGraphModel>
  </diagram>
</mxfile>
